<svg width="358" height="421" viewBox="0 0 358 421" fill="none" xmlns="http://www.w3.org/2000/svg">
<path d="M22.6414 210.251C22.6414 123.959 92.596 54.004 178.888 54.004C265.18 54.004 335.135 123.959 335.135 210.251C335.135 296.543 265.18 366.497 178.888 366.497C92.596 366.497 22.6414 296.543 22.6414 210.251Z" fill="#D7C7B5"/>
<path d="M187.96 205.275C187.92 205.321 187.904 205.383 187.891 205.443C187.779 205.972 187.811 206.881 188.049 207.381C188.371 208.056 188.995 208.676 189.751 208.817C190.049 208.873 190.635 208.889 190.831 208.625C190.845 208.604 190.859 208.581 190.868 208.556C191.088 208.037 190.345 207.007 190.056 206.624C189.837 206.333 188.388 204.769 187.96 205.275Z" fill="#F1F2E3"/>
<path d="M193.015 202.041C192.859 202.049 192.693 202.057 192.556 202.133C192.109 202.379 192.143 203.167 192.221 203.595C192.311 204.092 192.616 204.507 192.988 204.835C193.888 205.624 195.047 205.849 196.2 205.94C196.407 205.955 196.629 205.932 196.788 205.807C196.799 205.797 196.808 205.788 196.817 205.779C196.915 205.689 196.969 205.565 197.017 205.444C197.417 204.433 197.813 202.689 196.555 202.143C195.583 201.657 194.051 201.999 193.015 202.041Z" fill="#F1F2E3"/>
<path d="M200.529 181.125C201.249 180.767 201.907 180.232 202.279 179.519C202.912 178.303 202.464 177.171 201.232 176.656C198.399 175.469 194.872 175.352 191.847 175.448C189.996 175.507 187.595 175.508 186.129 176.82C185.131 177.715 184.712 179.207 185.104 180.489C185.313 181.173 185.652 181.676 186.079 182.041C187.605 183.355 190.06 183.017 191.917 182.881C194.048 182.724 196.157 182.351 198.237 181.867C199.023 181.684 199.809 181.485 200.529 181.125Z" fill="#F1F2E3"/>
<path d="M224.004 211.124C221.965 211.085 218.816 211.905 218.523 214.329C218.407 215.295 219.024 215.721 219.852 216.033C220.823 216.399 221.9 216.375 222.901 216.155C223.453 216.032 224.152 215.861 224.711 215.552C224.961 215.412 225.184 215.245 225.352 215.044C225.848 214.445 225.969 213.399 225.832 212.652C225.661 211.72 224.956 211.141 224.004 211.124Z" fill="#F1F2E3"/>
<path d="M240.084 228.6C237.795 231.049 233.605 228.495 233.657 225.499C233.688 223.827 235.951 221.923 237.484 221.819C239.657 221.671 241.731 223.379 241.715 225.623C241.705 226.84 241.071 227.916 240.084 228.6ZM238.572 243.788C237.583 244.496 236.339 244.613 235.205 244.219C231.879 243.804 231.483 238.913 233.94 237.195C235.309 236.236 238.181 236.949 239.165 238.129C240.563 239.801 240.399 242.481 238.572 243.788ZM224.253 247.347C221.964 249.796 217.775 247.243 217.827 244.245C217.857 242.573 220.12 240.669 221.653 240.565C223.827 240.419 225.9 242.125 225.884 244.372C225.875 245.588 225.24 246.664 224.253 247.347ZM234.853 163.012C231.62 156.525 228.409 149.901 225.859 143.065C226.985 149.568 228.533 156.48 230.481 162.829C233.392 171.031 243.036 180.533 241.889 193.405C241.888 193.424 241.885 193.44 241.884 193.459C241.853 194.003 241.811 194.547 241.751 195.088C241.751 197.917 240.427 200.976 239.484 203.593C238.06 207.549 236.344 211.401 234.356 215.108C234.187 215.421 234.013 215.736 233.84 216.051C231.125 221.14 224.472 224.612 218.495 226.535C218.36 226.568 218.217 226.612 218.072 226.663C216.053 227.289 214.136 227.739 212.48 228.009C208.719 228.391 205.968 227.688 205.968 227.688L202.565 239.389C202.565 239.389 204.816 246.468 209.369 251.723L209.375 251.716C211.568 254.469 214.936 256.352 218.185 258.169C218.204 258.181 218.223 258.189 218.244 258.201C220.208 259.475 222.507 260.233 224.848 260.492C231.94 261.557 237.269 255.491 241.427 250.624C250.513 239.649 251.633 224.527 250.187 210.913C248.003 194.187 242.693 177.933 234.853 163.012Z" fill="#F1F2E3"/>
<path d="M198.561 246.832C198.561 246.832 194.043 247.245 186.857 249.681C184.208 250.693 180.54 251.925 173.837 253.643C163.461 256.303 159.084 255.905 155.527 255.145C156.045 255.78 156.597 256.311 157.405 256.832C159.017 257.869 160.573 258.888 162.233 259.86C163.069 260.351 163.907 260.84 164.755 261.308C166.472 262.255 168.241 263.105 170.052 263.856C176.12 266.377 182.643 267.791 189.201 268.107C192.495 268.265 195.804 268.144 199.075 267.731C200.701 267.527 202.321 267.249 203.923 266.896C205.472 266.556 206.987 266.032 208.537 265.731C208.637 265.713 208.735 265.691 208.832 265.668C209.423 265.523 209.992 265.3 210.559 265.079C212.236 264.424 213.913 263.768 215.588 263.112C215.569 263.119 215.475 263.073 215.357 263.008C203.583 257.875 198.561 246.832 198.561 246.832Z" fill="#F1F2E3"/>
<path d="M171.491 103.217C171.492 103.141 171.495 103.067 171.495 102.992C171.543 102.984 171.596 102.964 171.645 102.951C171.593 103.039 171.543 103.131 171.491 103.217ZM176.324 88.824C175.936 87.2187 175.583 85.6067 175.321 83.9787C175.147 84.164 174.98 84.3667 174.808 84.5574C172.923 80.0267 170.107 75.6187 166.388 74.44C165.869 74.1134 165.333 73.8387 164.736 73.636C159.387 71.5987 153.465 71.072 147.852 72.212C139.723 73.4107 132.391 77.1747 124.817 80.1774C124.436 80.32 122.891 80.8947 120.808 81.6641C120.571 81.7454 120.335 81.832 120.096 81.9094C120.029 81.944 119.951 81.9734 119.881 82.0067C117.063 83.0454 113.54 84.336 110.597 85.3867C109.201 85.7934 107.897 86.2467 106.696 86.748C106.681 86.752 106.665 86.7574 106.651 86.7627L106.655 86.7641C100.753 89.2321 97.2213 92.7947 96.204 97.2227C94.8627 103.055 91.7973 111.772 96.396 111.975C100.995 112.177 111.933 106.052 114.092 105.151C114.812 104.851 115.44 103.863 116.16 102.512C116.204 102.471 116.253 102.436 116.297 102.393C116.265 102.407 116.233 102.421 116.201 102.435C117.629 99.7414 119.439 95.6374 123.104 92.4627C124.024 91.6681 125.035 91.0027 126.095 90.4174C123.789 92.4614 122.852 94.7414 120.284 100.012C120.104 100.369 119.928 100.728 119.759 101.085L119.977 100.824C120.487 100.353 121.649 99.8134 122.063 99.504C122.893 98.884 123.701 98.2334 124.505 97.58C128.96 93.96 133.391 90.9147 139.2 90.0134C140.987 89.736 142.797 89.6334 144.603 89.6334C145.537 89.6334 146.471 89.6627 147.403 89.7094C148.101 89.744 149.255 89.604 149.896 89.8747C146.536 87.0054 141.932 85.936 137.661 86.0694C141.388 85.008 145.241 84.4 149.129 84.5907C153.639 84.812 157.749 87.2 160.665 90.572C164.055 94.4907 165.296 99.3934 165.581 104.497C165.677 106.199 165.641 107.908 165.476 109.604C165.325 111.137 164.705 112.824 164.727 114.327C165.769 114 166.651 112.78 167.241 111.9C167.575 111.403 168.947 109.547 168.8 108.955C169.265 110.828 169.093 112.855 168.317 114.621C169.651 113.807 170.719 112.564 171.323 111.124C171.785 112.415 171.964 113.807 171.84 115.172C172.509 112.959 173.308 110.785 174.228 108.664C174.669 107.648 175.072 106.443 175.7 105.527C175.932 105.188 176.241 104.908 176.509 104.591C176.715 104.347 177.527 103.695 177.569 103.407C176.768 108.873 176.124 114.52 173.485 119.469C175.532 118.351 176.799 116.251 177.252 114.013C178.995 107.1 180.893 99.8827 180.208 92.7907C180.031 85.148 177.829 76.664 173.604 72.9414C173.596 72.9334 173.587 72.9267 173.58 72.92C173.507 72.856 173.437 72.7814 173.363 72.7214C173.184 72.5734 173.021 72.4561 172.856 72.3321C172.776 72.2747 172.703 72.2054 172.62 72.1507C171.531 71.3774 170.745 71.1187 170.169 71.1281C169.044 70.8481 167.851 70.7467 166.7 70.7867C166.977 71.8134 167.781 72.3027 168.656 72.7214C170.456 73.7974 172.249 75.7627 173.799 78.1787L173.221 78.3641C173.42 78.4041 173.709 78.4587 174.007 78.516C176.531 82.5827 178.351 87.8294 178.351 92.3027C178.351 95.296 178.068 97.5987 177.735 99.2854C177.711 98.2907 177.652 96.5147 177.623 95.5974C177.685 94.5467 177.247 91.9067 176.324 88.824Z" fill="#F1F2E3"/>
<path d="M142.269 110.245C147.335 107.564 143.06 97.5707 137.424 100.272C131.959 103.132 136.992 112.071 142.269 110.245Z" fill="#F1F2E3"/>
<path d="M220.225 174.473C211.193 170.431 200.533 167.951 190.94 171.412C206.432 172.731 223.181 176.288 234.452 187.823C232.627 181.036 226.104 177.321 220.225 174.473Z" fill="#F1F2E3"/>
<path d="M234.283 136.881C236.045 143.161 242.947 147.033 249.163 147.54C254.376 146.928 260.023 144.807 262.649 139.943C265.531 134.603 267.873 128.597 266.565 122.445C266.692 127.099 265.372 131.563 263.705 135.859C260.212 144.353 248.731 147.467 240.911 143.299C238.072 141.895 236.404 139.097 234.283 136.881Z" fill="#F1F2E3"/>
<path d="M123.885 107.829C124.539 114.024 126.924 120.577 132.275 124.207C137.712 127.896 145.336 130.647 151.667 127.536C155.847 125.483 158.627 121.347 160.885 117.432C163.976 112.071 162.943 105.328 159.829 100.22C162.288 109.528 158.711 120.925 149.487 125.02C143.321 128.387 136.709 125.372 131.8 121.443C127.568 118.055 125.215 112.957 123.885 107.829Z" fill="#F1F2E3"/>
<path d="M113.968 172.233C123.788 163.781 136.309 159.228 146.353 150.96C144.811 150.917 143.231 150.913 141.684 150.739C134.811 148.487 129.501 144.293 125.527 139.885C125.824 140.063 126.116 140.247 126.419 140.413C130.897 142.884 136.087 144.635 141.192 145.359C143.796 145.591 146.423 145.611 149.033 145.449C153.252 145.189 157.444 143.888 160.931 141.525C161.632 140.961 165.367 137.803 165.169 134.533C164.964 131.149 164.524 125.18 160.927 124.143C159.772 125.52 158.435 126.743 156.941 127.744C153.74 129.888 149.952 130.945 146.123 131.109C136.387 131.525 125.496 127.204 119.869 119.023C118.74 117.381 117.789 115.579 116.888 113.804C116.767 113.567 115.615 110.669 115.411 110.668C107.831 110.584 99.6294 113.989 95.196 120.217C85.892 133.291 85.4254 151.367 87.4334 166.704C87.988 170.936 88.4867 175.82 90.0654 179.812C91.3387 183.029 93.7214 186.193 95.8307 188.959C96.1574 189.388 99.9 193.191 99.7854 193.601C100.788 190.005 101.961 186.949 103.673 184.043C104.711 182.28 105.947 180.573 107.463 178.835C109.493 176.503 111.624 174.251 113.968 172.233Z" fill="#F1F2E3"/>
<path d="M157.729 213.445C155.44 215.893 151.249 213.34 151.303 210.343C151.332 208.671 153.596 206.768 155.129 206.664C157.303 206.516 159.376 208.223 159.36 210.469C159.351 211.685 158.715 212.763 157.729 213.445ZM154.193 228.041C152.143 230.467 146.801 230.421 145.816 226.899C145.579 226.048 145.636 225.145 145.695 224.264C145.876 221.599 149.817 221.328 151.651 221.941C153.951 222.712 156.948 226.025 154.193 228.041ZM141.975 201.709C141.305 200.265 141.477 199.301 142.539 198.121C143.312 197.261 144.519 196.412 145.741 196.624C147.629 196.951 149.561 198.481 149.877 200.412C150.176 202.231 147.679 203.48 146.211 203.739C144.464 204.047 142.744 203.369 141.975 201.709ZM141.677 215.335C139.943 217.389 135.681 216.539 135.243 213.721C134.995 212.125 136.369 210.859 137.531 209.995C140.707 207.631 144.675 212.94 141.677 215.335ZM196.735 94.1947C196.471 94.4054 195.932 94.8374 195.668 95.0587C196.291 90.1093 196.228 84.9493 198.084 80.252C197.907 84.9067 197.748 89.6347 196.735 94.1947ZM182.157 244.201C184.707 243.388 187.233 242.5 189.74 241.559C192.112 240.668 194.591 239.64 196.109 237.611C197.219 236.125 197.657 234.289 197.831 232.475C197.867 232.087 198.371 227.063 198.423 227.091C179.624 217.125 176.359 209.992 173.372 197.385C172.263 192.699 171.932 188.44 172.264 184.683L172.335 184.435C172.319 184.437 172.303 184.441 172.287 184.444C172.637 180.809 173.615 177.657 175.113 175.055C176.28 173.257 177.664 171.612 179.248 170.195C179.292 170.156 179.333 170.117 179.376 170.08C181.816 167.929 184.711 166.312 187.965 165.481C200.205 162.495 213.144 165.26 224.5 170.188C224.636 170.26 224.773 170.335 224.911 170.407C228.684 170.343 228.12 167.057 226.284 161.175C224.576 155.707 221.485 138.296 220.991 123.307C220.541 118.481 220.859 113.66 221.625 108.895C221.639 108.812 221.649 108.723 221.663 108.641C221.684 108.523 221.701 108.421 221.721 108.307C221.768 108.028 221.816 107.748 221.865 107.471C222.084 106.245 222.279 105.261 222.455 104.483C222.464 104.441 222.472 104.4 222.481 104.359C222.493 104.308 222.505 104.251 222.517 104.201C223.116 101.46 223.831 98.7427 224.605 96.0614C226.492 89.5267 227.827 82.7787 228.284 75.9853C228.733 69.3067 228.565 62.2853 226.785 55.8027C226.975 56.496 227.839 57.312 228.165 58.0067C228.536 58.7933 228.749 59.6013 228.971 60.4427C229.476 62.3853 229.899 64.3494 230.24 66.3294C230.909 70.216 231.267 74.1574 231.333 78.1C231.375 80.5494 231.325 83.004 231.068 85.4427C230.991 86.1693 230.328 92.3613 229.639 92.42C229.881 92.4 230.388 92.368 230.632 92.3467C232.773 88.6947 235.455 84.896 239.601 83.4187C252.624 79.38 263.313 91.2693 274.195 96.04C275.015 96.3987 275.977 96.7227 276.787 96.4213C276.613 95.4907 276.368 94.504 276.023 93.512C275.848 93.016 275.66 92.5614 275.465 92.128C268.247 84.6054 263.257 81.6533 263.257 81.6533C263.257 81.6533 268.629 83.3613 273.027 86.176C272.599 84.36 272.348 81.9934 272.448 78.532C272.727 68.9374 264.1 60.14 243.367 53.8507C239.048 52.5307 234.796 50.888 230.652 49.1413C216.584 43.8027 201.937 39.3907 186.835 38.588C182.572 38.304 178.255 37.48 174.003 38.24C177.517 39.812 181.052 41.4693 184.028 43.96C191.004 50.0387 195.025 58.8293 197.527 67.5787C197.325 68.9293 197.125 70.2907 196.915 71.652C194.644 64.2227 192.481 56.244 186.804 50.5987C184.144 48.1814 181.453 45.648 178.181 44.0867C180.071 46.5253 182.697 48.2547 184.567 50.7147C188.112 56.0333 191.068 61.932 191.868 68.36C190.592 65.288 189.621 62.0693 187.764 59.2827C185.453 55.3053 181.949 52.2134 179.596 48.2654C178.329 46.028 176.06 44.6987 173.823 43.6013C165.845 39.844 157.433 36.932 148.769 35.244C142.145 33.7053 138.588 27.0813 135.609 27.0227C132.631 26.964 128.792 42.5773 128.792 42.5773C128.792 42.5773 130.549 43.6507 131.247 45.5547C131.143 45.5013 131.045 45.444 130.935 45.3947C131.097 45.8294 131.293 46.2453 131.507 46.6507C131.625 47.8067 131.309 49.1813 130.14 50.7467C128.431 53.0333 123.936 59.612 119.519 66.1427C119.132 65.884 118.552 66.0093 117.764 66.544C117.847 67.212 118.072 67.6107 118.435 67.7467C113.461 75.1093 108.888 81.952 108.888 81.952C115.147 80.7907 121.077 78.1947 126.629 75.1667C126.629 75.1667 129.201 73.7027 136.581 70.2267C142.86 69.2987 148.823 66.7347 155.196 66.3227C159.365 65.9747 163.608 64.7813 167.776 65.868C173.275 67.1987 178.645 70.1427 181.917 74.8813C184.472 79.3453 184.988 84.6013 185.589 89.6133C186.133 94.628 185.291 99.6387 184.283 104.539C183.881 106.489 183.124 108.004 182.52 109.841C181.739 112.217 181.088 114.596 180.012 116.865C178.691 119.653 176.869 122.173 174.42 124.079C177.944 123.712 181.611 123.26 184.573 121.317C188.488 118.751 190.405 114.131 192.481 109.936C195.864 103.1 198.956 96.9987 199.28 89.216C199.533 83.092 199.684 76.964 199.728 70.8347C201.201 72.4613 201.357 74.8573 201.389 77.052C201.499 84.528 201.073 92.0453 199.455 99.344C197.637 107.548 194.267 115.559 188.788 122.001C187.14 123.809 185.336 125.445 183.532 127.091C181.988 128.5 180.209 129.153 178.284 129.899C176.188 130.711 174.171 131.725 172.269 132.925C174.119 133.223 175.86 134.152 177.139 135.521C174.685 135.683 172.159 135.863 169.952 136.951C169.057 137.391 168.239 137.972 167.472 138.609C166.501 139.415 165.609 140.313 164.809 141.289C166.393 140.741 167.863 140.293 169.349 139.532C170.868 138.755 172.383 137.945 174.024 137.452C173.545 137.596 172.865 138.505 172.476 138.844C171.952 139.299 171.42 139.744 170.883 140.181C169.761 141.092 168.611 141.967 167.444 142.817C165.103 144.523 162.689 146.127 160.275 147.723C155.328 150.995 150.309 154.175 145.52 157.675C141.351 160.721 137.176 163.823 132.507 166.072C125.953 169.396 119.727 173.523 114.493 178.725C111.339 181.86 108.493 185.872 106.939 190.049C106.148 192.175 105.709 194.432 105.781 196.704C105.805 197.431 105.693 198.589 106.285 199.123C107.213 199.959 108.228 199.053 108.777 198.295C110.583 195.8 112.017 193.089 113.86 190.64C119.969 182.515 128.36 175.2 138.533 173.037C137.104 174.067 135.624 175.056 134.14 176.047C132.637 177.049 130.843 177.664 129.323 178.713C127.464 179.996 125.719 181.437 124.044 182.949C122.651 184.208 121.379 185.565 120.155 186.964C113.768 196.537 114.413 202.668 114.413 202.668C114.413 202.668 113.285 201.379 113.472 197.679C113.515 196.833 113.609 196.008 113.728 195.233C113.055 196.223 112.424 197.239 111.917 198.321C111.084 200.101 110.577 202.075 110.755 204.032C110.832 204.885 111.015 206.112 111.569 206.805C112.032 207.385 112.975 207.805 113.611 208.201C113.843 208.347 116.352 209.557 116.349 209.773C116.472 196.963 120.737 191.981 123.241 187.105L123.411 187.052C123.217 187.757 123.044 188.469 122.877 189.181C122.875 189.177 118.792 201.7 120.836 212.959C122.88 224.219 128.813 239.005 140.153 246.099C146.02 249.769 153.797 249.384 160.427 248.808C167.824 248.167 175.096 246.456 182.157 244.201Z" fill="#F1F2E3"/>
<path d="M93.188 59.2227C94.264 54.4667 95.2827 49.6894 97.5253 45.3334C100.869 38.8334 103.972 32.1374 107.856 25.9307C109.355 23.5347 110.985 21.2187 112.804 19.0533C114.108 17.4987 116.111 14.5134 118.248 14.1294C119.231 13.952 120.277 14.4227 120.877 15.2213C122.485 17.3653 121.177 21.856 120.967 24.2893C120.673 27.6773 120.468 31.0867 120.763 34.4813C120.843 35.4053 121.169 36.5533 122.088 36.6773C122.817 36.776 123.417 36.1333 123.831 35.524C126.652 31.3587 126.691 26.7307 126.143 21.9147C125.521 16.4373 124.888 10.032 120.107 6.48535C112.909 4.48001 106.197 9.70402 101.596 14.696C93.2013 23.8107 90.48 36.352 86.3333 47.648C85.8253 49.0333 85.3013 50.4214 84.564 51.7C84.4493 51.8987 84.32 52.104 84.1147 52.2067C83.732 52.3973 83.2493 52.1253 83.0547 51.744C82.8613 51.3627 82.8773 50.9133 82.8893 50.4853C83.0747 44.576 81.9853 38.524 79.008 33.416C76.0307 28.3067 71.028 24.24 65.2213 23.1254C65.0307 23.0894 64.8373 23.056 64.6453 23.0254C57.608 21.916 49.6733 25.732 43.12 27.9507C35.2413 30.6173 27.3987 33.4013 19.4493 35.856C4.92134 40.3387 7.24934 49.7733 10.532 62.376C13.2667 72.8707 23.4187 86.02 30.8333 95.76C36.828 103.637 41.0453 113.08 46.3333 121.456C48.4 124.729 50.52 127.971 52.6893 131.179C54.1667 133.364 57.472 136.98 59.956 137.9C61.6587 138.529 63.632 138.179 65.172 137.215C67.42 135.809 68.5707 133.308 69.74 131.031C71.9773 126.672 73.9827 122.196 76.1707 117.812C76.6 116.953 77.0173 116.089 77.4227 115.221C81.5213 106.467 84.528 97.24 87.0173 87.912C89.552 78.4107 91.024 68.7973 93.188 59.2227Z" fill="#F1F2E3"/>
<path d="M291.823 78.124C295.284 86.212 299.092 96.1147 299.092 96.1147C298.053 82.4987 292.747 70.9587 289.4 66.228C289.4 66.228 288.36 70.036 291.823 78.124Z" fill="#F1F2E3"/>
<path d="M253.427 109.312C252.867 109.315 252.228 109.349 251.545 109.403C248.317 109.661 243.919 110.493 240.123 111.804C237.287 112.783 234.789 114.025 233.389 115.493C233.389 115.493 235.057 111.867 240.123 109.715C240.455 109.575 240.799 109.44 241.159 109.312C241.513 109.188 241.869 109.081 242.225 108.985C247.784 107.492 253.427 109.312 253.427 109.312ZM272.639 103.421C269.736 100.861 267.088 97.9414 263.711 95.952C262.651 95.3267 261.532 94.8107 260.413 94.3014C258.061 93.2307 255.667 92.1774 253.117 91.7641C251.197 91.4521 249.237 91.5107 247.299 91.6574C244.976 91.8321 242.624 92.1454 240.439 92.9854C238.671 93.6654 237.421 94.7494 235.969 95.9014C229.337 101.159 227.444 104.389 226.284 112.82C225.981 115.009 225.957 117.484 226.071 119.948C226.472 119.184 227.013 118.279 227.773 117.229C230.097 114.028 233.731 112.747 233.731 112.747C229.908 116.14 227.593 121.511 226.447 124.827C226.559 125.811 226.683 126.756 226.808 127.643C229.249 124.532 232.571 122.445 232.571 122.445C230.008 125.773 228.387 128.917 227.393 131.268C227.687 132.903 227.909 133.916 227.909 133.916C227.909 133.916 238.067 111.257 255.219 110.52C260.764 110.656 265.879 114.793 269.873 120.173C270.533 121.153 271.185 122.14 271.852 123.112C271.967 123.28 272.071 123.445 272.179 123.612C272.795 124.623 273.375 125.651 273.911 126.687C275.403 129.871 275.579 132.324 274.724 133.32C273.573 134.664 269.959 133.244 265.188 141.916C260.599 150.259 248.868 152.675 239.4 150.441C239.092 150.296 238.731 150.196 238.283 150.168C238.361 150.449 238.443 150.731 238.523 151.013C238.992 152.672 239.48 154.328 240 155.973C241.295 154.235 243.804 153.485 243.804 153.485C243.804 153.485 241.481 156.593 241.284 159.631C241.956 161.243 242.733 162.793 243.485 164.387C245.56 168.785 247.351 173.311 249.147 177.829C249.471 178.779 249.819 179.72 250.209 180.64C250.223 180.68 250.239 180.721 250.252 180.76C250.837 182.425 251.584 185.288 252.348 188.497C252.333 188.575 252.321 188.652 252.307 188.729C252.337 188.719 252.365 188.708 252.395 188.697C254.215 196.38 256.112 205.944 256.112 205.944C256.112 205.944 263.488 196.221 267.216 187.823C270.944 179.424 274.195 168.697 274.275 163.345C274.297 161.857 274.047 159.839 272.667 158.965C271.952 158.511 271.197 158.527 270.392 158.625C265.857 159.181 261.529 160.963 256.983 161.411C257.681 161.343 258.647 160.636 259.279 160.324C260.047 159.944 260.809 159.548 261.563 159.136C263.079 158.307 264.559 157.408 265.976 156.42C266.195 156.267 266.408 156.109 266.623 155.953C266.637 155.945 266.647 155.941 266.661 155.932C270.459 153.464 276.349 149.687 277.269 145.507C278.191 141.327 279.847 133.564 277.269 127.761C277.269 127.761 277.269 127.781 277.269 127.789C275.443 122.911 268.221 114.835 264.931 112.557C262.92 111.165 260.808 110.231 258.753 109.709C258.751 109.705 258.749 109.701 258.747 109.697C253.681 108.395 251.491 107.321 251.647 107.373C251.804 107.425 256.269 106.424 259.748 108.076C262.531 109.304 265.065 110.513 267.4 112.52C269.671 114.471 271.603 116.779 273.441 119.131C273.652 119.401 273.881 119.672 274.115 119.945C274.133 119.968 274.149 119.985 274.168 120.008C276.043 122.328 279.708 124.621 279.9 119.675C279.944 116.987 279.549 114.276 278.777 111.776C277.631 108.06 275.445 105.899 272.639 103.421Z" fill="#F1F2E3"/>
<path d="M260.715 125.629C261.251 125.243 261.583 124.62 261.745 123.979C261.937 123.224 262.032 122.296 261.868 121.527C261.713 120.799 258.559 120.651 257.971 120.613C257.241 120.567 254.871 120.34 254.783 121.507C254.781 121.523 254.78 121.539 254.78 121.555C254.68 123.733 258.681 127.097 260.715 125.629Z" fill="#F1F2E3"/>
<path d="M302.716 84.2961C301.076 76.9014 298.297 69.748 294.395 63.2507C292.139 59.4947 287.86 53.444 282.833 53.804C280.299 53.9854 278.72 55.6747 277.604 57.8014C276.227 60.4267 275.409 63.3454 275.224 66.3054C276.603 63.364 279.977 61.4974 283.201 61.8894C282.195 60.7894 280.725 60.2467 279.249 60.3147C280.264 60.152 281.059 59.3841 282.065 59.1974C284.06 58.8307 285.696 59.1467 287.28 60.488C290.747 63.42 292.885 67.5334 294.716 71.6054C296.824 76.2974 298.595 81.0854 299.811 86.0907C301.072 91.2827 301.519 96.648 302.16 101.943C303.083 109.528 303.669 117.151 303.472 124.804C303.439 126.092 303.292 127.375 303.145 128.653C303.923 125.527 304.395 122.336 304.6 119.121C304.8 115.992 305.149 112.867 305.215 109.712C305.331 103.76 304.972 97.7987 304.113 91.908C303.741 89.3547 303.275 86.8147 302.716 84.2961Z" fill="#F1F2E3"/>
<path d="M340.648 110.387C339.148 111.683 337.744 113.363 335.779 113.621C335.459 113.664 335.124 113.663 334.825 113.541C334.432 113.384 334.149 113.04 333.884 112.711C332.637 111.159 331.389 109.608 330.14 108.056C329.011 106.649 327.731 105.149 325.96 104.804C324.717 104.561 323.445 104.937 322.249 105.347C318.316 106.691 312.753 108.861 310.684 112.764C308.977 115.979 308.313 120.219 307.613 123.728C306.011 131.76 305.472 140 305.719 148.179C306.407 170.859 313.717 175.564 316.613 173.272C319.508 170.98 329.761 156.02 334.347 145.652C338.931 135.283 346.893 128.756 350.167 120.133C352.212 114.749 346.552 105.283 340.648 110.387Z" fill="#F1F2E3"/>
<path d="M243.153 130.015C243.976 129.853 245.207 129.1 245.583 128.317C245.817 127.825 245.861 127.311 245.623 126.809C244.793 125.076 242.791 125.644 242.007 127.131C241.612 127.88 241.525 129.055 241.996 129.66C242.232 129.961 242.608 130.121 243.153 130.015Z" fill="#F1F2E3"/>
<path d="M100.328 202.917C93.636 212.689 91.628 224.736 89.2187 231.563C86.808 238.389 73.5574 261.815 75.4307 286.98C77.3054 312.144 92.2974 335.569 100.328 343.601C108.36 351.632 117.328 353.372 128.036 361.939C138.745 370.505 153.335 384.427 155.076 393.529C156.816 402.631 159.76 393.529 159.76 393.529C159.76 393.529 162.437 404.504 159.76 413.473C159.76 413.473 172.343 394.561 191.619 379.723C210.893 364.884 235.924 340.789 235.924 340.789C235.924 340.789 247.571 341.325 255.065 324.325C262.561 307.327 262.561 280.421 260.956 271.184C259.349 261.948 249.041 245.62 249.041 245.62C249.041 245.62 240.876 260.744 229.097 263.688C217.317 266.633 208.559 269.845 202.565 271.051C196.571 272.256 176.067 273.46 165.169 266.633C154.272 259.807 148.516 251.776 144.367 250.837C140.217 249.901 126.564 240.667 123.084 230.76C119.604 220.855 122.86 215.684 117.819 213.719C112.777 211.752 100.328 202.917 100.328 202.917Z" fill="#F1F2E3"/>
<path d="M101.163 199.292C102.327 188.044 111.783 170.427 131.224 162.248C150.665 154.071 162.749 142.168 162.749 142.168C162.749 142.168 166.156 134.439 169.177 131.769C172.197 129.1 182.303 127.616 186.881 123.057C191.46 118.5 196.669 109.136 198.585 99.8134C200.503 90.492 200.903 79.1494 200.583 74.8374H200.224C200.224 74.8374 198.308 71.828 196.471 66.5414C194.632 61.2547 190.264 47.6947 177.547 41.9481C164.829 36.2027 154.18 33.904 149.965 32.6014C145.752 31.2987 135.792 25.2467 133.647 21.7987C131.501 18.3521 125.871 3.88673 119.513 3.75339C113.155 3.62139 47.0507 22.4321 38.0427 25.4787C29.0347 28.5267 9.16403 35.2814 5.1907 42.1707C1.21603 49.0587 8.10403 67.6054 10.7534 73.6987C13.4027 79.7921 37.4414 114.041 39.6614 125.141C41.8814 136.243 47.432 150.229 60.9747 144.457C74.5174 138.685 78.5134 126.917 80.7347 131.136C82.9547 135.355 76.9654 159.379 83.8574 174.499C90.748 189.619 101.163 199.292 101.163 199.292Z" fill="#EBB752"/>
<path d="M123.885 106.184C127.731 111.307 135.752 123.483 138.941 124.063C142.131 124.641 152.18 123 155.563 118.264C158.945 113.528 157.399 100.208 159.912 99.8134C162.424 99.4187 162.715 104.735 163.584 108.309C164.453 111.887 161.457 120.1 159.041 122.903C156.625 125.705 153.051 131.503 146.383 130.633C139.715 129.764 128.215 126.092 124.445 121.453C120.676 116.815 123.885 106.184 123.885 106.184Z" fill="#F9E373"/>
<path d="M133.121 105.151C133.121 101.467 136.109 98.48 139.793 98.48C143.479 98.48 146.465 101.467 146.465 105.151C146.465 108.836 143.479 111.823 139.793 111.823C136.109 111.823 133.121 108.836 133.121 105.151Z" fill="#F1F2E3"/>
<path d="M227.737 58.6414C227.505 56.7187 232.903 59.0787 233.988 58.6414C235.075 58.2041 231.997 55.3094 236.159 55.4907C240.321 55.6707 254.527 62.7281 265.203 61.0094C275.88 59.2907 277.46 49.8374 286.852 52.0814C296.245 54.3254 313.212 86.0934 325.043 92.6881C336.873 99.2814 345.796 105.019 352.971 111.945C360.147 118.871 347.54 137.197 342.692 143.065C337.844 148.933 323.491 173.825 319.029 179.223C314.569 184.62 304.291 169.769 304.291 169.769C304.291 169.769 299.519 133.039 299.092 127.893C298.665 122.751 294.789 113.001 290.231 115.257C285.671 117.513 280.147 132.253 279.903 145.829C279.659 159.407 270.931 187.809 265.693 196.591C260.459 205.372 254.777 209.401 254.777 209.401C254.777 209.401 247.945 185.855 243.728 173.795C239.512 161.733 227.452 143.027 224.591 130.723C221.731 118.417 228.125 99.9694 228.799 87.6561C229.471 75.3427 229.529 67.3987 229.4 65.1374C229.271 62.8734 227.737 58.6414 227.737 58.6414Z" fill="#EBB752"/>
<path d="M241.311 125.104C240.079 128.375 237.892 133.253 243.408 132.02C248.924 130.787 244.636 128.107 251.552 127.088C258.468 126.069 263.187 128.039 263.668 125.74C264.151 123.443 265.973 118.992 262.703 118.403C259.433 117.812 251.587 118.563 250.711 119.207C249.836 119.849 241.311 125.104 241.311 125.104Z" fill="#F1F2E3"/>
<path d="M233.908 135.656C235.324 136.88 243.313 143.58 247.823 143.58C252.333 143.58 257.229 141.904 260.321 138.748C263.415 135.591 265.153 131.021 265.283 127.893C265.412 124.768 265.412 121.096 266.441 121.224C267.472 121.353 268.696 125.26 268.568 128.653C268.439 132.048 263.841 141.647 261.952 143.58C260.064 145.512 255.008 148.62 250.609 148.741C246.212 148.863 240.285 149.571 237.773 146.285C235.26 143 232.684 139.005 232.619 137.781C232.555 136.557 233.908 135.656 233.908 135.656Z" fill="#F9E373"/>
<path d="M95.6414 213.719C107.141 215.811 114.545 232.983 120.689 241.804C126.833 250.627 140.989 296.937 182.424 297.849C223.859 298.764 221.856 265.62 221.856 265.62C221.856 265.62 184.213 274.823 172.608 270.699C161.003 266.576 149.903 253.445 149.903 253.445C149.903 253.445 137.029 251.153 130.464 243.367C123.897 235.579 119.121 214.427 119.121 214.427L99.6734 203.915L95.6414 213.719Z" fill="#C3BFB6"/>
<path d="M165.133 253.576C175.708 257.353 197.62 261.58 208.048 257.501L198.075 243.451L165.133 253.576Z" fill="#C3BFB6"/>
<path d="M119.577 216.315C128.464 230.86 137.805 243.473 155.129 243.451C172.453 243.429 187.431 240.829 189.368 234.544C191.305 228.26 166.263 213.308 162.749 194.672C162.749 194.672 165.839 178.237 186.589 169.769C186.589 169.769 176.836 205.123 183.259 210.251C189.681 215.379 204.792 220.051 202.564 225.012C200.337 229.976 198.075 243.451 198.075 243.451C198.075 243.451 169.237 254.451 158.756 253.769C148.275 253.087 137.356 248.752 132.645 243.451C127.936 238.151 121.24 230.104 121.075 225.695C120.911 221.285 119.577 216.315 119.577 216.315Z" fill="#C3BFB6"/>
<path d="M240.093 195.312C245.748 200.24 244.867 208.851 244.867 208.851C244.867 208.851 233.831 221.715 225.884 227.169C217.937 232.627 208.609 234.005 206.673 236.748C204.737 239.492 213.959 253.924 222.196 256.037C230.435 258.149 240.819 253.799 240.819 253.799C240.819 253.799 235.865 263.429 226.639 262.9C217.411 262.373 207.055 253.205 202.565 248.328C198.075 243.451 200.572 232.179 201.597 227.652C202.625 223.125 208.664 219.779 215.588 220.305C222.515 220.835 220.753 223.827 227.795 217.313C234.835 210.801 236.137 201.648 237.687 197.424C239.236 193.2 240.093 195.312 240.093 195.312Z" fill="#C3BFB6"/>
<path d="M62.752 145.112C67.6707 137.851 47.104 109.465 37.7333 95.0587C28.364 80.6534 17.6013 60.332 18.5253 48.0934C19.4493 35.856 20.6333 32.6334 20.6333 32.6334C20.6333 32.6334 5.604 29.12 3.98267 42.0027C2.36267 54.8867 7.74934 73.0587 12.904 80.252C18.0573 87.4467 37.1947 115.636 40.276 127.893C43.356 140.152 62.752 145.112 62.752 145.112Z" fill="#E0A32B"/>
<path d="M119.577 118.189C124.869 128.349 129.861 134.564 139.793 136.58C149.725 138.595 158.756 134.912 158.756 134.912C158.756 134.912 148.324 150.26 125.527 139.885C125.527 139.885 140.787 148.209 143.175 148.732C142.665 148.62 141.299 149.423 140.835 149.592C138.143 150.568 135.444 151.524 132.743 152.473C122.356 156.12 111.952 159.336 102.465 165.068C100.753 166.103 99.1 167.148 97.3294 168.073C96.2507 168.64 95.192 169.717 94.6334 168.129C94.3307 167.267 94.3934 166.227 94.4467 165.328C94.536 163.827 94.9374 162.356 95.4547 160.951C95.7147 160.245 96.008 159.553 96.3227 158.871C96.516 158.448 96.82 157.359 97.1947 157.089C97.1934 157.089 93.12 160.015 92.18 162.104C92.18 162.104 85.68 149.327 88.3147 130.048C90.9507 110.769 80.4294 131.967 80.8587 143.065C81.2867 154.164 83.2107 171.1 86.4654 178.796C89.72 186.491 95.8694 194.573 98.504 197.559C101.14 200.547 102.369 189.477 108.344 181.923C114.317 174.368 130.843 161.847 143.317 156.257C155.791 150.668 161.787 143.065 161.787 143.065C161.787 143.065 168.065 137.061 167.989 132.98C167.912 128.899 164.497 122.709 161.347 122.512C158.195 122.316 157.341 125.599 154.583 127.109C151.827 128.619 146.836 130.588 142.24 129.932C137.644 129.276 129.043 124.943 126.745 122.119C124.447 119.296 119.577 118.189 119.577 118.189Z" fill="#E0A32B"/>
<path d="M244.323 173.467C251.283 181.865 260.989 192.223 272.531 182.247C272.531 182.247 264.997 201.479 254.777 210.251L244.323 173.467Z" fill="#E0A32B"/>
<path d="M271.683 131.283C272.325 137.971 267.824 146.845 262.936 150.703C258.049 154.561 245.787 152.504 239.828 163.051C239.828 163.051 237.343 155.333 237.213 151.219C237.085 147.103 233.696 143.377 239.828 146.204C245.96 149.031 255.22 149.728 259.979 146.204C264.737 142.68 267.144 136.299 268.577 134.112C270.011 131.925 271.683 131.283 271.683 131.283Z" fill="#E0A32B"/>
<path d="M347.647 109.256C350.504 118.804 343.464 125.755 337.437 134.912C331.413 144.069 325.249 158.919 317.689 164.32C310.127 169.723 304.132 166.999 304.132 166.999C304.132 166.999 313.169 181.307 315.011 183.023C316.852 184.74 324.843 171.183 328.128 164.655C331.413 158.128 343.435 139.215 348.303 133.191C353.171 127.165 356.853 117.123 354.343 112.939C351.831 108.753 347.647 109.256 347.647 109.256Z" fill="#E0A32B"/>
<path d="M217.749 294.277C215.167 296.675 213.071 299.629 210.299 301.92C207.113 304.552 203.813 307.039 200.516 309.525C198.867 310.768 197.217 312.011 195.583 313.272C194.885 313.808 194.208 314.317 193.611 314.953C193.247 315.34 192.692 316.324 192.112 316.403C196.207 315.844 199.943 313.913 203.267 311.517C209.335 307.144 214.836 301.301 217.749 294.277Z" fill="#341F1D"/>
<path d="M350.167 120.133C346.893 128.756 338.931 135.283 334.347 145.652C329.761 156.02 319.508 170.98 316.613 173.272C313.717 175.564 306.407 170.859 305.719 148.179C305.472 140 306.011 131.76 307.613 123.728C308.313 120.219 308.977 115.979 310.684 112.764C312.753 108.861 318.316 106.691 322.249 105.347C323.445 104.937 324.717 104.561 325.96 104.804C327.731 105.149 329.011 106.649 330.14 108.056C331.389 109.608 332.637 111.159 333.884 112.711C334.149 113.04 334.432 113.384 334.825 113.541C335.124 113.663 335.459 113.664 335.779 113.621C337.744 113.363 339.148 111.683 340.648 110.387C346.552 105.283 352.212 114.749 350.167 120.133ZM304.6 119.121C304.395 122.336 303.923 125.527 303.145 128.653C303.292 127.375 303.439 126.092 303.472 124.804C303.669 117.151 303.083 109.528 302.16 101.943C301.519 96.648 301.072 91.2827 299.811 86.0907C298.595 81.0853 296.824 76.2973 294.716 71.6053C292.885 67.5333 290.747 63.42 287.28 60.488C285.696 59.1467 284.06 58.8307 282.065 59.1974C281.059 59.384 280.264 60.152 279.249 60.3147C280.725 60.2467 282.195 60.7894 283.201 61.8894C279.977 61.4974 276.603 63.364 275.224 66.3053C275.409 63.3453 276.227 60.4267 277.604 57.8013C278.72 55.6747 280.299 53.9854 282.833 53.804C287.86 53.444 292.139 59.4947 294.395 63.2507C298.297 69.748 301.076 76.9013 302.716 84.296C303.275 86.8147 303.741 89.3547 304.113 91.908C304.972 97.7987 305.331 103.76 305.215 109.712C305.149 112.867 304.8 115.992 304.6 119.121ZM291.823 78.124C288.36 70.036 289.4 66.228 289.4 66.228C292.747 70.9587 298.053 82.4987 299.092 96.1147C299.092 96.1147 295.284 86.212 291.823 78.124ZM274.168 120.008C274.149 119.985 274.133 119.968 274.115 119.945C273.881 119.672 273.652 119.401 273.441 119.131C271.603 116.779 269.671 114.471 267.4 112.52C265.065 110.513 262.531 109.304 259.748 108.076C256.269 106.424 251.804 107.425 251.647 107.373C251.491 107.321 253.681 108.395 258.747 109.697C258.749 109.701 258.751 109.705 258.753 109.709C260.808 110.231 262.92 111.165 264.931 112.557C268.221 114.835 275.443 122.911 277.269 127.789C277.269 127.781 277.269 127.761 277.269 127.761C279.847 133.564 278.191 141.327 277.269 145.507C276.349 149.687 270.459 153.464 266.661 155.932C266.647 155.941 266.637 155.945 266.623 155.953C266.408 156.109 266.195 156.267 265.976 156.42C264.559 157.408 263.079 158.307 261.563 159.136C260.809 159.548 260.047 159.944 259.279 160.324C258.647 160.636 257.681 161.343 256.983 161.411C261.529 160.963 265.857 159.181 270.392 158.625C271.197 158.527 271.952 158.511 272.667 158.965C274.047 159.839 274.297 161.857 274.275 163.345C274.195 168.697 270.944 179.424 267.216 187.823C263.488 196.221 256.112 205.944 256.112 205.944C256.112 205.944 254.215 196.38 252.395 188.697C252.365 188.708 252.337 188.719 252.307 188.729C252.321 188.652 252.333 188.575 252.348 188.497C251.584 185.288 250.837 182.425 250.252 180.76C250.239 180.721 250.223 180.68 250.209 180.64C249.819 179.72 249.471 178.779 249.147 177.829C247.351 173.311 245.56 168.785 243.485 164.387C242.733 162.793 241.956 161.243 241.284 159.631C241.481 156.593 243.804 153.485 243.804 153.485C243.804 153.485 241.295 154.235 240 155.973C239.48 154.328 238.992 152.672 238.523 151.013C238.443 150.731 238.361 150.449 238.283 150.168C238.731 150.196 239.092 150.296 239.4 150.441C248.868 152.675 260.599 150.259 265.188 141.916C269.959 133.244 273.573 134.664 274.724 133.32C275.579 132.324 275.403 129.871 273.911 126.687C273.375 125.651 272.795 124.623 272.179 123.612C272.071 123.445 271.967 123.28 271.852 123.112C271.185 122.14 270.533 121.153 269.873 120.173C265.879 114.793 260.764 110.656 255.219 110.52C238.067 111.257 227.909 133.916 227.909 133.916C227.909 133.916 227.687 132.903 227.393 131.268C228.387 128.917 230.008 125.773 232.571 122.445C232.571 122.445 229.249 124.532 226.808 127.643C226.683 126.756 226.559 125.811 226.447 124.827C227.593 121.511 229.908 116.14 233.731 112.747C233.731 112.747 230.097 114.028 227.773 117.229C227.013 118.279 226.472 119.184 226.071 119.948C225.957 117.484 225.981 115.009 226.284 112.82C227.444 104.389 229.337 101.159 235.969 95.9013C237.421 94.7493 238.671 93.6653 240.439 92.9853C242.624 92.1453 244.976 91.832 247.299 91.6573C249.237 91.5107 251.197 91.452 253.117 91.764C255.667 92.1774 258.061 93.2307 260.413 94.3013C261.532 94.8107 262.651 95.3267 263.711 95.952C267.088 97.9413 269.736 100.861 272.639 103.421C275.445 105.899 277.631 108.06 278.777 111.776C279.549 114.276 279.944 116.987 279.9 119.675C279.708 124.621 276.043 122.328 274.168 120.008ZM254.78 121.555C254.78 121.539 254.781 121.523 254.783 121.507C254.871 120.34 257.241 120.567 257.971 120.613C258.559 120.651 261.713 120.799 261.868 121.527C262.032 122.296 261.937 123.224 261.745 123.979C261.583 124.62 261.251 125.243 260.715 125.629C258.681 127.097 254.68 123.733 254.78 121.555ZM242.007 127.131C242.791 125.644 244.793 125.076 245.623 126.809C245.861 127.311 245.817 127.825 245.583 128.317C245.207 129.1 243.976 129.853 243.153 130.015C242.608 130.121 242.232 129.961 241.996 129.66C241.525 129.055 241.612 127.88 242.007 127.131ZM263.705 135.859C265.372 131.563 266.692 127.099 266.565 122.445C267.873 128.597 265.531 134.603 262.649 139.943C260.8 143.372 257.233 145.493 253.621 146.653C253.211 146.785 252.796 146.903 252.376 147.004C249.388 147.727 246.513 147.365 243.672 146.253C240.6 145.051 237.731 143.063 235.873 140.299C235.52 139.771 235.204 139.217 234.935 138.64C234.804 138.359 234.684 138.071 234.575 137.779C234.495 137.561 234.435 137.04 234.283 136.881C236.404 139.097 238.072 141.895 240.911 143.299C248.731 147.467 260.212 144.353 263.705 135.859ZM241.427 250.624C237.269 255.491 231.94 261.557 224.848 260.492C222.507 260.233 220.208 259.475 218.244 258.201C218.223 258.189 218.204 258.181 218.185 258.169C214.936 256.352 211.568 254.469 209.375 251.716L209.369 251.723C204.816 246.468 202.565 239.389 202.565 239.389L205.968 227.688C205.968 227.688 208.719 228.391 212.48 228.009C214.136 227.739 216.053 227.289 218.072 226.663C218.217 226.612 218.36 226.568 218.495 226.535C224.472 224.612 231.125 221.14 233.84 216.051C234.013 215.736 234.187 215.421 234.356 215.108C236.344 211.401 238.06 207.549 239.484 203.593C240.427 200.976 241.751 197.917 241.751 195.088C241.811 194.547 241.853 194.003 241.884 193.459C241.885 193.44 241.888 193.424 241.889 193.405C243.036 180.533 233.392 171.031 230.481 162.829C228.533 156.48 226.985 149.568 225.859 143.065C228.409 149.901 231.62 156.525 234.853 163.012C242.693 177.933 248.003 194.187 250.187 210.913C251.633 224.527 250.513 239.649 241.427 250.624ZM210.559 265.079C209.992 265.3 209.423 265.523 208.832 265.668C208.735 265.691 208.637 265.713 208.537 265.731C206.987 266.032 205.472 266.556 203.923 266.896C202.321 267.249 200.701 267.527 199.075 267.731C195.804 268.144 192.495 268.265 189.201 268.107C182.643 267.791 176.12 266.377 170.052 263.856C168.241 263.105 166.472 262.255 164.755 261.308C163.907 260.84 163.069 260.351 162.233 259.86C160.573 258.888 159.017 257.869 157.405 256.832C156.597 256.311 156.045 255.78 155.527 255.145C159.084 255.905 163.461 256.303 173.837 253.643C180.54 251.925 184.208 250.693 186.857 249.681C194.043 247.245 198.561 246.832 198.561 246.832C198.561 246.832 203.583 257.875 215.357 263.008C215.475 263.073 215.569 263.119 215.588 263.112C213.913 263.768 212.236 264.424 210.559 265.079ZM190.868 208.556C190.859 208.581 190.845 208.604 190.831 208.625C190.635 208.889 190.049 208.873 189.751 208.817C188.995 208.676 188.371 208.056 188.049 207.381C187.811 206.881 187.779 205.972 187.891 205.443C187.904 205.383 187.92 205.321 187.96 205.275C188.388 204.769 189.837 206.333 190.056 206.624C190.345 207.007 191.088 208.037 190.868 208.556ZM197.017 205.444C196.969 205.565 196.915 205.689 196.817 205.779C196.808 205.788 196.799 205.797 196.788 205.807C196.629 205.932 196.407 205.955 196.2 205.94C195.047 205.849 193.888 205.624 192.988 204.835C192.616 204.507 192.311 204.092 192.221 203.595C192.143 203.167 192.109 202.379 192.556 202.133C192.693 202.057 192.859 202.049 193.015 202.041C194.051 201.999 195.583 201.657 196.555 202.143C197.813 202.689 197.417 204.433 197.017 205.444ZM191.917 182.881C190.06 183.017 187.605 183.355 186.079 182.041C185.652 181.676 185.313 181.173 185.104 180.489C184.712 179.207 185.131 177.715 186.129 176.82C187.595 175.508 189.996 175.507 191.847 175.448C194.872 175.352 198.399 175.469 201.232 176.656C202.464 177.171 202.912 178.303 202.279 179.519C201.907 180.232 201.249 180.767 200.529 181.125C199.809 181.485 199.023 181.684 198.237 181.867C196.157 182.351 194.048 182.724 191.917 182.881ZM225.352 215.044C225.184 215.245 224.961 215.412 224.711 215.552C224.152 215.861 223.453 216.032 222.901 216.155C221.9 216.375 220.823 216.399 219.852 216.033C219.024 215.721 218.407 215.295 218.523 214.329C218.816 211.905 221.965 211.085 224.004 211.124C224.956 211.141 225.661 211.72 225.832 212.652C225.969 213.399 225.848 214.445 225.352 215.044ZM190.94 171.412C200.533 167.951 211.193 170.431 220.225 174.473C226.104 177.321 232.627 181.036 234.452 187.823C223.181 176.288 206.432 172.731 190.94 171.412ZM140.153 246.099C128.813 239.005 122.88 224.219 120.836 212.959C118.792 201.7 122.875 189.177 122.877 189.181C123.044 188.469 123.217 187.757 123.411 187.052L123.241 187.105C120.737 191.981 116.472 196.963 116.349 209.773C116.352 209.557 113.843 208.347 113.611 208.201C112.975 207.805 112.032 207.385 111.569 206.805C111.015 206.112 110.832 204.885 110.755 204.032C110.577 202.075 111.084 200.101 111.917 198.321C112.424 197.239 113.055 196.223 113.728 195.233C113.609 196.008 113.515 196.833 113.472 197.679C113.285 201.379 114.413 202.668 114.413 202.668C114.413 202.668 113.768 196.537 120.155 186.964C121.379 185.565 122.651 184.208 124.044 182.949C125.719 181.437 127.464 179.996 129.323 178.713C130.843 177.664 132.637 177.049 134.14 176.047C135.624 175.056 137.104 174.067 138.533 173.037C128.36 175.2 119.969 182.515 113.86 190.64C112.017 193.089 110.583 195.8 108.777 198.295C108.228 199.053 107.213 199.959 106.285 199.123C105.693 198.589 105.805 197.431 105.781 196.704C105.709 194.432 106.148 192.175 106.939 190.049C108.493 185.872 111.339 181.86 114.493 178.725C119.727 173.523 125.953 169.396 132.507 166.072C137.176 163.823 141.351 160.721 145.52 157.675C150.309 154.175 155.328 150.995 160.275 147.723C162.689 146.127 165.103 144.523 167.444 142.817C168.611 141.967 169.761 141.092 170.883 140.181C171.42 139.744 171.952 139.299 172.476 138.844C172.865 138.505 173.545 137.596 174.024 137.452C172.383 137.945 170.868 138.755 169.349 139.532C167.863 140.293 166.393 140.741 164.809 141.289C165.609 140.313 166.501 139.415 167.472 138.609C168.239 137.972 169.057 137.391 169.952 136.951C172.159 135.863 174.685 135.683 177.139 135.521C175.86 134.152 174.119 133.223 172.269 132.925C174.171 131.725 176.188 130.711 178.284 129.899C180.209 129.153 181.988 128.5 183.532 127.091C185.336 125.445 187.14 123.809 188.788 122.001C194.267 115.559 197.637 107.548 199.455 99.344C201.073 92.0453 201.499 84.528 201.389 77.052C201.357 74.8573 201.201 72.4614 199.728 70.8347C199.684 76.964 199.533 83.092 199.28 89.216C198.956 96.9987 195.864 103.1 192.481 109.936C190.405 114.131 188.488 118.751 184.573 121.317C181.611 123.26 177.944 123.712 174.42 124.079C176.869 122.173 178.691 119.653 180.012 116.865C181.088 114.596 181.739 112.217 182.52 109.841C183.124 108.004 183.881 106.489 184.283 104.539C185.291 99.6386 186.133 94.628 185.589 89.6133C184.988 84.6013 184.472 79.3454 181.917 74.8814C178.645 70.1427 173.275 67.1987 167.776 65.868C165.032 65.2053 162.095 65.34 159.317 65.724C156.6 66.1 153.867 66.4 151.159 66.876C145.536 67.864 139.995 69.3214 134.615 71.2307C132.133 72.1121 129.888 73.5293 127.549 74.7427C122.764 77.2227 117.904 79.668 112.687 81.108C111.436 81.452 110.168 81.7387 108.888 81.952C109.127 81.908 109.683 80.7653 109.808 80.5773C110.637 79.3387 111.468 78.1 112.299 76.8614C117.175 69.5947 122.051 62.324 127.033 55.1307C128.465 53.0654 130.441 51.1814 131.153 48.7067C131.639 47.02 131.393 44.6053 129.869 43.4627C129.547 43.136 129.187 42.8187 128.792 42.5773C128.792 42.5773 132.631 26.964 135.609 27.0227C138.588 27.0814 142.145 33.7053 148.769 35.244C157.433 36.932 165.845 39.844 173.823 43.6013C176.06 44.6987 178.329 46.028 179.596 48.2654C181.949 52.2134 185.453 55.3053 187.764 59.2827C189.621 62.0693 190.592 65.288 191.868 68.36C191.068 61.932 188.112 56.0334 184.567 50.7147C182.697 48.2547 180.071 46.5254 178.181 44.0867C181.453 45.648 184.144 48.1813 186.804 50.5987C192.481 56.244 194.644 64.2226 196.915 71.652C197.125 70.2906 197.325 68.9293 197.527 67.5787C195.025 58.8293 191.004 50.0387 184.028 43.96C181.052 41.4693 177.517 39.812 174.003 38.24C178.255 37.48 182.572 38.304 186.835 38.588C198.501 39.208 209.861 42.176 220.901 45.8534C231.671 49.44 242.863 52.9347 253.283 57.4267C261.931 61.1573 272.76 67.7534 272.448 78.532C272.348 81.9934 272.599 84.36 273.027 86.176C268.629 83.3614 263.257 81.6534 263.257 81.6534C263.257 81.6534 268.247 84.6054 275.465 92.128C275.66 92.5614 275.848 93.016 276.023 93.512C276.368 94.504 276.613 95.4907 276.787 96.4213C275.977 96.7227 275.015 96.3987 274.195 96.04C263.313 91.2693 252.624 79.38 239.601 83.4187C235.455 84.896 232.773 88.6947 230.632 92.3467C230.388 92.368 229.881 92.4 229.639 92.42C230.328 92.3614 230.991 86.1694 231.068 85.4427C231.325 83.004 231.375 80.5494 231.333 78.1C231.267 74.1574 230.909 70.216 230.24 66.3293C229.899 64.3493 229.476 62.3854 228.971 60.4427C228.749 59.6014 228.536 58.7934 228.165 58.0067C227.839 57.312 226.975 56.496 226.785 55.8026C228.565 62.2853 228.733 69.3067 228.284 75.9853C227.827 82.7787 226.492 89.5267 224.605 96.0614C222.997 101.628 221.788 107.32 221.215 113.089C220.639 118.873 220.94 124.593 221.389 130.361C222.148 140.087 223.36 150.017 225.807 159.481C225.955 160.049 226.108 160.615 226.284 161.175C228.12 167.057 228.684 170.343 224.911 170.407C224.773 170.335 224.636 170.26 224.5 170.188C213.144 165.26 200.205 162.495 187.965 165.481C184.711 166.312 181.816 167.929 179.376 170.08C179.333 170.117 179.292 170.156 179.248 170.195C177.664 171.612 176.28 173.257 175.113 175.055C173.615 177.657 172.637 180.809 172.287 184.444C172.303 184.441 172.319 184.437 172.335 184.435L172.264 184.683C171.932 188.44 172.263 192.699 173.372 197.385C176.359 209.992 179.624 217.125 198.423 227.091C198.371 227.063 197.867 232.087 197.831 232.475C197.657 234.289 197.219 236.125 196.109 237.611C194.591 239.64 192.112 240.668 189.74 241.559C187.233 242.5 184.707 243.388 182.157 244.201C175.096 246.456 167.824 248.167 160.427 248.808C153.797 249.384 146.02 249.769 140.153 246.099ZM99.7853 193.601C99.9 193.191 96.1573 189.388 95.8307 188.959C93.7213 186.193 91.3387 183.029 90.0653 179.812C88.4867 175.82 87.988 170.936 87.4333 166.704C85.4253 151.367 85.892 133.291 95.196 120.217C99.6294 113.989 107.831 110.584 115.411 110.668C115.615 110.669 116.767 113.567 116.888 113.804C117.789 115.579 118.74 117.381 119.869 119.023C125.496 127.204 136.387 131.525 146.123 131.109C149.952 130.945 153.74 129.888 156.941 127.744C158.435 126.743 159.772 125.52 160.927 124.143C163.163 124.788 164.083 127.289 164.543 129.337C164.808 130.519 164.956 131.723 165.056 132.928C165.185 134.445 165.227 135.828 164.552 137.244C163.756 138.912 162.361 140.376 160.931 141.525C156.437 145.132 150.189 145.864 144.617 145.617C138.249 145.335 131.997 143.489 126.419 140.413C126.116 140.247 125.824 140.063 125.527 139.885C125.897 140.107 126.239 140.66 126.541 140.973C126.907 141.353 127.279 141.727 127.657 142.092C128.435 142.844 129.24 143.567 130.073 144.256C132.943 146.627 136.215 148.692 139.699 150.032C140.74 150.432 141.824 150.739 142.933 150.875C144.065 151.013 145.215 150.928 146.353 150.96C136.309 159.228 123.788 163.781 113.968 172.233C111.624 174.251 109.493 176.503 107.463 178.835C105.947 180.573 104.711 182.28 103.673 184.043C101.961 186.949 100.788 190.005 99.7853 193.601ZM137.424 100.272C143.06 97.5706 147.335 107.564 142.269 110.245C136.992 112.071 131.959 103.132 137.424 100.272ZM149.487 125.02C158.711 120.925 162.288 109.528 159.829 100.22C162.943 105.328 163.976 112.071 160.885 117.432C158.627 121.347 155.847 125.483 151.667 127.536C145.336 130.647 137.712 127.896 132.275 124.207C126.924 120.577 124.539 114.024 123.885 107.829C125.215 112.957 127.568 118.055 131.8 121.443C136.709 125.372 143.321 128.387 149.487 125.02ZM177.735 99.2853C178.068 97.5986 178.351 95.296 178.351 92.3026C178.351 89.7933 177.813 87.292 177.015 84.9213C175.841 81.4387 174.096 78.0653 171.637 75.2933C170.812 74.364 169.796 73.2667 168.656 72.7213C167.781 72.3027 166.977 71.8134 166.7 70.7867C166.703 70.8 168.621 70.8547 168.805 70.8773C170.693 71.112 172.287 71.6907 173.7 73.008C175.125 74.3373 176.213 76.048 177.041 77.7987C178.484 80.852 179.304 84.1974 179.776 87.5307C180.024 89.2827 180.039 91.036 180.208 92.7907C180.893 99.8827 178.995 107.1 177.252 114.013C176.799 116.251 175.532 118.351 173.485 119.469C173.519 119.451 173.555 119.336 173.573 119.301C173.603 119.245 173.632 119.189 173.661 119.133C173.719 119.021 173.775 118.908 173.831 118.795C173.944 118.564 174.053 118.332 174.16 118.097C174.368 117.636 174.563 117.168 174.744 116.695C175.149 115.636 175.489 114.551 175.779 113.453C176.069 112.352 176.311 111.24 176.523 110.121C176.733 109 176.915 107.872 177.083 106.744C177.168 106.18 177.249 105.616 177.332 105.052C177.416 104.461 177.533 103.876 177.62 103.284C177.353 103.528 177.092 103.779 176.836 104.035C176.756 104.115 176.676 104.196 176.603 104.283C176.489 104.416 176.391 104.561 176.293 104.707C176.091 105.005 175.879 105.297 175.681 105.597C175.055 106.547 174.679 107.628 174.228 108.664C173.308 110.785 172.509 112.959 171.84 115.172C171.964 113.807 171.785 112.415 171.323 111.124C170.719 112.564 169.651 113.807 168.317 114.621C169.093 112.855 169.265 110.828 168.8 108.955C168.947 109.547 167.575 111.403 167.241 111.9C166.651 112.78 165.769 114 164.727 114.327C164.705 112.824 165.325 111.137 165.476 109.604C165.641 107.908 165.677 106.199 165.581 104.497C165.296 99.3934 164.055 94.4907 160.665 90.572C157.749 87.2 153.639 84.812 149.129 84.5907C145.241 84.4 141.388 85.008 137.661 86.0693C141.932 85.936 146.536 87.0053 149.896 89.8746C149.255 89.604 148.101 89.744 147.403 89.7094C146.471 89.6627 145.537 89.6334 144.603 89.6334C142.797 89.6334 140.987 89.736 139.2 90.0133C132.669 91.0266 127.479 95.2974 122.379 99.1707C121.619 99.748 120.665 100.188 119.977 100.824L119.759 101.085C119.928 100.728 120.104 100.369 120.284 100.012C122.852 94.7414 123.789 92.4614 126.095 90.4174C125.035 91.0027 124.024 91.668 123.104 92.4627C120.813 94.4454 119.104 96.9614 117.673 99.6094C117.184 100.519 116.732 101.448 116.236 102.355C116.227 102.372 116.223 102.395 116.235 102.408C116.129 102.592 116.025 102.776 115.92 102.96C115.479 103.731 114.961 104.788 114.092 105.151C111.933 106.052 100.995 112.177 96.396 111.975C91.7973 111.772 94.8627 103.055 96.204 97.2227C97.2213 92.7947 100.753 89.232 106.651 86.7627C106.665 86.7573 106.681 86.752 106.696 86.748C113.853 84.34 120.941 81.7267 127.94 78.8947C134.445 76.2614 140.841 73.2453 147.852 72.212C152.968 71.456 158.417 71.4707 163.372 73.104C169.16 75.012 172.521 79.06 174.808 84.5573C174.98 84.3667 175.147 84.164 175.321 83.9787C175.583 85.6067 175.936 87.2187 176.324 88.824C177.247 91.9067 177.685 94.5467 177.623 95.5974C177.652 96.5147 177.711 98.2906 177.735 99.2853ZM76.1707 117.812C73.9827 122.196 71.9773 126.672 69.74 131.031C68.5707 133.308 67.42 135.809 65.172 137.215C63.632 138.179 61.6587 138.529 59.956 137.9C57.472 136.98 54.1667 133.364 52.6893 131.179C50.52 127.971 48.4 124.729 46.3333 121.456C41.0453 113.08 36.828 103.637 30.8333 95.76C23.4187 86.02 13.2667 72.8707 10.532 62.376C7.24933 49.7733 4.92133 40.3387 19.4493 35.856C27.3987 33.4014 35.2413 30.6173 43.12 27.9507C49.6733 25.732 57.608 21.916 64.6453 23.0254C64.8373 23.056 65.0307 23.0894 65.2213 23.1254C71.028 24.24 76.0307 28.3067 79.008 33.416C81.9853 38.524 83.0747 44.576 82.8893 50.4853C82.8773 50.9133 82.8613 51.3627 83.0547 51.744C83.2493 52.1253 83.732 52.3974 84.1147 52.2067C84.32 52.104 84.4493 51.8987 84.564 51.7C85.3013 50.4214 85.8253 49.0333 86.3333 47.648C90.48 36.352 93.2014 23.8107 101.596 14.696C106.197 9.70401 112.909 4.47998 120.107 6.48532C124.888 10.032 125.521 16.4374 126.143 21.9147C126.691 26.7307 126.652 31.3587 123.831 35.524C123.417 36.1333 122.817 36.776 122.088 36.6773C121.169 36.5533 120.843 35.4054 120.763 34.4814C120.468 31.0867 120.673 27.6774 120.967 24.2894C121.177 21.856 122.485 17.3653 120.877 15.2213C120.277 14.4227 119.231 13.952 118.248 14.1293C116.111 14.5133 114.108 17.4987 112.804 19.0534C110.985 21.2187 109.355 23.5347 107.856 25.9307C103.972 32.1374 100.869 38.8334 97.5253 45.3334C95.2827 49.6894 94.264 54.4667 93.188 59.2227C91.024 68.7974 89.552 78.4107 87.0173 87.912C84.528 97.24 81.5213 106.467 77.4227 115.221C77.0173 116.089 76.6 116.953 76.1707 117.812ZM354.643 106.468C348.617 101.444 341.545 97.8773 335.097 93.4547C324.133 86.384 315.027 76.78 307.301 66.3547C305.532 63.9413 303.633 61.576 301.52 59.436C301.509 59.4226 301.503 59.4121 301.492 59.4001C298.929 56.3867 296.263 53.8187 292.633 52.2493C296.571 53.1693 300.42 54.5293 304.251 55.7907C303.259 51.3893 298.657 49.4267 294.912 47.8547C288.855 45.1733 281.931 45.3533 275.661 47.1787C275.272 44.0973 272.496 41.1 269.203 41.6493C262.017 42.5773 257.14 51.8547 249.311 49.1413C235.475 43.148 221.735 36.5307 206.876 33.46C187.257 28.8693 167.016 29.6814 147.028 29.428C143.863 25.1654 140.053 21.472 136.644 17.44C132.94 11.024 129.795 2.96138 122.049 0.533382C114.281 -1.28262 106.567 1.92668 99.3067 4.34268C88.932 8.24801 78.348 11.572 67.6147 14.3267C52.5133 18.368 37.496 22.748 22.468 27.044C16.02 29.0906 9.19201 30.948 3.92534 35.4013C0.042675 38.9053 0 44.604 0 49.4373C0.148 64.4014 7.54534 77.9733 15.1013 90.4467C20.3787 99.3013 27.2587 107.491 30.1613 117.548C32.916 126.761 31.4387 136.903 35.712 145.715C38.6773 152.089 46.0853 156.236 53.0827 154.685C61.9907 153.365 68.5333 146.464 74.3893 140.195C72.8173 149.788 74.316 159.603 77.144 168.827C80.8067 181.248 88.036 192.192 95.8653 202.355C92.384 209.531 89.7133 217.056 87.3707 224.673C84.9333 232.537 79.952 239.237 76.8493 246.816C72.6067 257.211 69.2507 268.237 69.5667 279.583C69.072 297.556 74.116 315.612 84.236 330.501C94.2507 344.949 104.224 359.483 115.855 372.695C121.933 379.613 127.953 386.707 135.211 392.425C132.376 384.749 127.913 377.132 121.692 368.255C118.5 364.145 115.451 359.921 112.445 355.672C124.94 365.149 138.585 373.972 147.599 387.089C152.991 394.856 154.395 404.449 155.713 413.588C159.007 401.083 164.029 389.159 167.681 376.779C163.101 378.889 160.748 383.596 157.697 387.343C154.921 374.331 155.777 360.443 149.909 348.2C144.96 337.172 136.601 326.619 124.676 322.873C138.987 331.357 148.073 347.008 149.835 363.387C150.427 367.808 149.825 372.273 149.825 376.716C149.319 376.177 148.812 375.66 148.305 375.153C139.809 366.257 129.816 359.039 120.36 351.24C112.572 345.003 103.897 339.832 96.8893 332.667C87.244 322.556 82.2413 308.952 79.972 295.381C77.6613 283.256 77.324 270.487 80.9227 258.571C83.0013 251.755 85.408 245.021 88.3 238.509C88.468 249.02 91.1907 259.205 93.396 269.409C93.86 270.961 94.0293 272.755 95.3173 273.916C91.5547 258.717 92.3027 228.001 97.3973 216.348C97.3987 216.344 97.4013 216.339 97.4027 216.335C97.4053 216.328 97.408 216.321 97.4107 216.315H97.412C98.46 213.639 99.936 211.141 101.976 208.949C102.465 209.056 102.945 209.171 103.417 209.295C108.921 213.551 114.18 216.232 116.531 217.335C118.676 225.26 127.567 252.137 150.492 256.816C157.225 266.368 166.853 272.355 177.22 275.003C175.355 275.5 173.443 275.867 171.707 275.924C165.348 276.136 160.507 276.341 160.507 276.341C160.507 276.341 171.675 278.659 184.525 276.317C185.388 276.407 186.252 276.476 187.119 276.523C190.449 276.701 193.893 276.525 197.3 276.06C186.563 287.185 172.065 288.645 172.065 288.645C196.129 287.969 199.711 282.493 207.648 273.68C212.3 272.149 216.505 270.069 219.809 267.588C218.329 274.117 213.335 283.548 209.065 288.645C209.065 288.645 220.312 284.499 231.584 264.693C233.695 264.244 235.973 263.488 238.215 262.264C241.933 265.279 242.999 271.927 242.999 271.927C244.344 267.893 243.745 262.337 242.163 259.516C242.749 259.004 243.319 258.441 243.875 257.836C250.312 264.809 252.035 277.367 252.035 277.367C252.312 268.761 250.583 260.272 246.86 253.805C247.404 252.885 247.916 251.893 248.384 250.825C248.384 250.825 253.115 256.74 254.737 265.081C254.745 265.123 254.751 265.167 254.759 265.208C257.545 275.667 257.333 286.901 255.98 297.597C254.893 306.641 251.98 315.423 247.601 323.389C245.532 327.061 243.243 330.756 239.876 333.393C246.249 319.444 251.473 304.279 250.24 288.723C247.769 292.511 248.201 297.512 246.905 301.819C246.748 302.612 246.577 303.4 246.397 304.187C244.676 309.632 243.044 315.465 240.761 321.448C239.707 324.033 238.589 326.595 237.439 329.139C234.32 335.496 230.128 341.904 224.004 348.092C221.936 350.053 219.823 351.959 217.673 353.825C215.441 355.648 213.899 356.961 212.912 357.864C201.657 367.199 189.796 375.825 179.268 386.012C170.224 395.036 161.233 404.703 156.463 416.765C156.16 417.768 155.408 419.324 155.445 420.501C174.776 394.279 189.187 387.091 202.616 376.432C202.748 376.328 202.869 376.235 202.996 376.139C207.912 372.164 212.877 368.252 217.841 364.357C223.729 359.777 229.249 354.723 235.285 350.343C231.107 359.303 224.436 366.753 218.844 374.827C217.1 377.465 214.855 379.955 213.761 382.948C223.483 373.192 241.527 354.249 252.872 337.244C258.193 328.067 262.736 318.453 265.309 308.129C269.097 291.867 266.755 274.675 260.297 259.416C258.123 253.241 254.397 247.712 252.751 241.347C254.315 236.591 255.167 231.644 256.201 226.756C256.644 224.663 256.617 222.619 256.748 220.475C256.855 218.732 256.481 214.609 257.564 213.181C262.164 207.113 267.136 201.256 270.817 194.556C276.717 183.949 280.601 172.267 282.723 160.341C284.559 150.537 283.915 140.48 285.36 130.635C287.292 127.025 291.196 124.967 294.691 123.111C297.191 137.199 296.801 151.645 299.228 165.767C300.536 172.605 303.259 179.105 306.645 185.173C308.208 187.801 309.876 190.556 312.535 192.223C317.548 192.255 319.416 186.693 321.78 183.211C327.521 174.315 330.972 164.163 337.072 155.476C345.165 143.911 353.091 131.837 357.081 118.149C358.263 114.161 358.231 109.232 354.643 106.468Z" fill="#341F1D"/>
<path d="M196.735 94.1947C197.748 89.6347 197.907 84.9067 198.084 80.252C196.228 84.9494 196.291 90.1094 195.668 95.0587C195.932 94.8374 196.471 94.4054 196.735 94.1947Z" fill="#341F1D"/>
<path d="M149.877 200.412C149.561 198.481 147.629 196.951 145.741 196.624C144.519 196.412 143.312 197.261 142.539 198.121C141.477 199.301 141.305 200.265 141.975 201.709C142.744 203.369 144.464 204.047 146.211 203.739C147.679 203.48 150.176 202.231 149.877 200.412Z" fill="#341F1D"/>
<path d="M155.129 206.664C153.596 206.768 151.332 208.671 151.303 210.343C151.249 213.34 155.44 215.893 157.729 213.445C158.715 212.763 159.351 211.685 159.36 210.469C159.376 208.223 157.303 206.516 155.129 206.664Z" fill="#341F1D"/>
<path d="M237.484 221.819C235.951 221.923 233.688 223.827 233.657 225.499C233.605 228.495 237.795 231.049 240.084 228.6C241.071 227.916 241.705 226.84 241.715 225.623C241.731 223.379 239.657 221.671 237.484 221.819Z" fill="#341F1D"/>
<path d="M221.653 240.565C220.12 240.669 217.857 242.573 217.827 244.245C217.775 247.243 221.964 249.796 224.253 247.347C225.24 246.664 225.875 245.588 225.884 244.372C225.9 242.125 223.827 240.419 221.653 240.565Z" fill="#341F1D"/>
<path d="M233.94 237.195C231.483 238.913 231.879 243.804 235.205 244.219C236.339 244.613 237.583 244.496 238.572 243.788C240.399 242.481 240.563 239.801 239.165 238.129C238.181 236.949 235.309 236.236 233.94 237.195Z" fill="#341F1D"/>
<path d="M137.531 209.995C136.369 210.859 134.995 212.125 135.243 213.721C135.681 216.539 139.943 217.389 141.677 215.335C144.675 212.94 140.707 207.631 137.531 209.995Z" fill="#341F1D"/>
<path d="M151.651 221.941C149.817 221.328 145.876 221.599 145.695 224.264C145.636 225.145 145.579 226.048 145.816 226.899C146.801 230.421 152.143 230.467 154.193 228.041C156.948 226.025 153.951 222.712 151.651 221.941Z" fill="#341F1D"/>
<path d="M128.977 286.184C132.093 291.381 135.788 296.333 140.335 300.368C144.54 304.103 149.548 306.604 155.129 307.424C154.644 307.353 153.767 306.359 153.368 306.048C152.76 305.572 152.123 305.148 151.516 304.688C150.201 303.692 148.995 302.459 147.851 301.277C144.708 298.031 142.013 294.417 139.687 290.572C136.811 285.821 134.495 280.716 132.583 275.511C131.009 271.224 129.841 266.788 129.108 262.28C128.681 269.177 128.768 276.304 131.364 282.708C129.692 280.36 128.48 277.731 127.311 275.109C126.121 272.441 124.885 269.855 123.952 267.076C122.257 262.027 120.233 257.031 119.312 251.755C118.952 249.7 118.76 247.601 118.105 245.62C117.536 248.98 117.925 252.42 118.316 255.804C118.479 257.224 118.643 258.648 118.924 260.051C120.719 269.02 123.987 277.704 128.625 285.592C128.743 285.789 128.86 285.988 128.977 286.184Z" fill="#341F1D"/>
<path d="M185.443 336.497C184.872 332.603 185.232 328.413 183.215 324.899C184.207 334.417 183.309 343.937 182.424 353.424C185.705 348.569 186.107 342.185 185.443 336.497Z" fill="#341F1D"/>
<path d="M181.359 367.956C177.907 373.223 173.485 377.708 169.359 382.436C166.52 385.601 164.547 389.876 165.644 394.203C168.852 392.651 170.815 389.548 173.359 387.184C176.229 384.167 179.648 381.623 182.076 378.215C183.933 374.151 184.799 369.676 185.168 365.244C183.659 365.772 182.149 366.479 181.359 367.956Z" fill="#341F1D"/>
<path d="M181.179 279.944C169.521 283.593 155.764 282.061 149.161 276.764C149.161 276.764 154.92 284.417 166.107 284.653C177.292 284.889 181.179 279.944 181.179 279.944Z" fill="#341F1D"/>
<path d="M91.3614 305.34C91.3614 305.34 97.444 320.619 105.775 329.612C114.105 338.605 132.391 346.149 141.579 360.201C141.579 360.201 138.717 351.779 133.203 345.32C127.689 338.861 121.143 336.505 112.445 329.737C103.748 322.969 91.3614 305.34 91.3614 305.34Z" fill="#341F1D"/>
<path d="M242.225 108.985C241.869 109.081 241.513 109.188 241.159 109.312C240.799 109.44 240.455 109.575 240.123 109.715C235.057 111.867 233.389 115.493 233.389 115.493C234.789 114.025 237.287 112.783 240.123 111.804C243.919 110.493 248.317 109.661 251.545 109.403C252.228 109.349 252.867 109.315 253.427 109.312C253.427 109.312 247.784 107.492 242.225 108.985Z" fill="#341F1D"/>
</svg>
